<?xml version="1.0" encoding="utf-8"?>
<!-- Generator: Adobe Illustrator 16.0.0, SVG Export Plug-In . SVG Version: 6.00 Build 0)  -->
<!DOCTYPE svg PUBLIC "-//W3C//DTD SVG 1.1//EN" "http://www.w3.org/Graphics/SVG/1.1/DTD/svg11.dtd">
<svg version="1.1" id="Layer_1" xmlns="http://www.w3.org/2000/svg" xmlns:xlink="http://www.w3.org/1999/xlink" x="0px" y="0px"
	 width="496px" height="324px" viewBox="0 0 496 324" enable-background="new 0 0 496 324" xml:space="preserve">
<g>
	<g>
		<path fill="#BDD9F9" d="M221.646,88.355c3.47,0,6.747-1.156,9.446-3.277c3.662,2.121,7.711,3.277,11.951,3.277
			c6.939,0,13.688-3.277,18.121-8.674c1.156,0.192,2.12,0.385,3.277,0.385c8.289,0,15.035-6.746,15.035-15.035
			c0-8.29-6.746-15.037-15.035-15.037c-1.157,0-2.314,0.193-3.277,0.386c-4.434-5.397-10.988-8.675-18.121-8.675
			c-10.602,0-19.855,7.133-22.555,17.156c-7.518,0.579-13.686,6.94-13.686,14.651C206.804,81.802,213.55,88.355,221.646,88.355z
			 M221.646,62.717h0.192c0.965,0,1.735-0.578,1.928-1.541c1.735-9.061,9.832-15.615,19.084-15.615
			c6.17,0,12.146,3.084,15.809,8.097c0.578,0.771,1.349,0.964,2.119,0.771c1.157-0.385,2.314-0.578,3.471-0.578
			c6.168,0,11.181,5.012,11.181,11.182c0,6.168-5.013,11.18-11.181,11.18c-1.156,0-2.313-0.192-3.471-0.578
			c-0.771-0.192-1.734,0-2.119,0.771c-3.663,5.012-9.639,8.096-15.808,8.096c-4.048,0-7.903-1.156-11.181-3.469
			c-0.386-0.193-0.771-0.387-1.156-0.387c-0.579,0-0.965,0.193-1.35,0.578c-2.121,2.121-4.82,3.277-7.711,3.277
			c-5.977,0-10.795-4.818-10.795-10.795C210.659,67.729,215.671,62.717,221.646,62.717z"/>
		<path fill="#BDD9F9" d="M278.535,136.809c-0.771-0.192-1.735-0.192-2.506-0.192c-6.94,0-12.531,5.59-12.531,12.53
			c0,6.939,5.591,12.53,12.531,12.53c0.771,0,1.734,0,2.506-0.193c3.662,4.433,9.06,6.939,14.843,6.939
			c3.47,0,6.747-0.964,9.639-2.699c2.12,1.735,4.819,2.699,7.711,2.699c6.747,0,12.337-5.591,12.337-12.337
			c0-6.361-4.818-11.759-11.18-12.337c-2.314-8.097-9.832-14.072-18.507-14.072C287.787,129.869,282.197,132.375,278.535,136.809z
			 M293.378,133.725c7.325,0,13.687,5.205,15.036,12.337c0.193,0.964,0.964,1.543,1.928,1.543h0.193
			c4.626,0,8.481,3.855,8.481,8.481c0,4.627-3.855,8.481-8.481,8.481c-2.313,0-4.434-0.964-5.977-2.506
			c-0.385-0.385-0.964-0.578-1.35-0.578c-0.385,0-0.771,0.193-1.156,0.386c-2.699,1.734-5.59,2.698-8.867,2.698
			c-5.012,0-9.639-2.313-12.53-6.361c-0.578-0.771-1.35-0.964-2.12-0.771c-0.965,0.192-1.735,0.386-2.699,0.386
			c-4.819,0-8.675-3.855-8.675-8.675s3.855-8.675,8.675-8.675c0.964,0,1.734,0.192,2.699,0.386c0.771,0.192,1.734,0,2.12-0.771
			C283.74,136.038,288.559,133.725,293.378,133.725z"/>
		<path d="M161.056,160.364l4.241,6.363c5.012,7.519,9.832,15.037,14.843,22.747c0.579,0.964,1.35,1.735,2.313,2.313
			c0.771,0.578,2.699,1.928,5.012,1.35c2.892-0.771,5.012-2.506,6.361-5.012c1.157-2.313,1.542-4.819,0.964-7.904l-0.386-2.12
			c-0.386-2.12-0.771-4.241-1.156-6.555c7.71-5.012,15.421-10.025,23.325-14.845l2.313-1.542l0.965,1.928
			c1.35,2.892,2.891,5.785,3.662,8.869l8.482,30.072c0.385,1.734,0.963,3.47,1.542,5.205c0.964,2.892,2.892,4.434,5.397,4.434
			c0.771,0,1.542-0.193,2.313-0.386c0.771-0.192,1.349-0.386,2.12-0.771c3.855-1.542,6.555-4.048,7.711-7.325
			c0.771-2.12,1.156-4.434,0.964-7.325l-2.12-43.953c-0.193-3.663-0.386-7.133-0.578-10.796c-0.193-1.928,0.385-3.084,1.928-4.048
			l5.59-4.048c4.434-3.085,8.675-6.169,13.108-9.446c3.663-2.506,6.169-5.012,8.289-7.903c1.542-2.121,3.277-4.627,4.435-7.519
			c1.156-3.276,0.385-6.554-2.121-8.675c-1.734-1.35-3.855-2.12-6.361-1.928c-4.627,0.386-8.867,1.735-12.53,4.049
			c-3.663,2.12-7.325,4.627-11.952,7.903c-2.12,1.542-4.24,3.084-6.361,4.819c-1.35,0.964-2.699,2.12-4.048,3.084
			c-1.35,0.964-2.699,1.35-4.241,0.964c-0.964-0.192-1.734-0.578-2.699-0.964c-7.903-3.662-15.613-7.325-23.324-11.18
			l-21.398-10.025c-1.349-0.578-2.891-1.349-4.626-1.928c-2.699-0.963-5.012-0.771-6.939,0.579c-2.699,1.735-5.205,4.048-6.94,6.554
			c-1.735,2.313-1.542,5.012,0.386,7.133c0.964,0.964,1.735,1.735,2.506,2.506c8.096,6.555,16,13.108,24.097,19.663
			c3.084,2.506,5.783,4.819,7.711,7.903c0.578,0.771,0.963,1.542,1.542,2.506l-17.928,14.458c-1.928,1.542-3.855,3.084-5.783,4.627
			c-0.386-0.193-0.579-0.386-0.964-0.579l-2.506-1.542c-2.12-1.35-4.241-2.506-6.168-3.662c-2.506-1.35-5.012-1.35-7.325,0.386
			c-1.35,0.963-2.699,1.927-3.855,3.084c-2.313,1.928-2.699,4.048-1.157,6.747C160.092,159.016,160.67,159.594,161.056,160.364z
			 M163.369,154.581c1.157-0.964,2.313-1.928,3.47-2.892c1.156-0.771,2.12-0.771,3.277-0.192c2.121,1.156,4.048,2.506,6.169,3.663
			l2.506,1.542c0.578,0.386,0.964,0.578,1.349,0.964c0.579,0.386,1.735,0.964,3.277-0.193c2.121-1.734,4.241-3.47,6.362-5.012
			l18.506-14.844l1.928-1.542l-0.771-1.349c-0.192-0.386-0.385-0.771-0.771-1.35c-0.578-0.964-1.156-1.928-1.734-2.892
			c-2.313-3.47-5.397-5.977-8.482-8.675c-8.096-6.555-16-13.108-24.096-19.663c-0.579-0.578-1.35-1.156-2.121-2.12
			c-0.964-0.964-0.771-1.542-0.193-2.313c1.542-2.12,3.663-4.048,5.976-5.591c0.578-0.385,1.735-0.771,3.47-0.192
			c1.735,0.579,3.084,1.157,4.434,1.735l21.398,10.023c7.71,3.663,15.614,7.326,23.519,11.182c1.156,0.578,2.313,0.964,3.276,1.156
			c2.506,0.771,5.205,0.192,7.519-1.542c1.35-0.964,2.698-2.121,4.048-3.085c2.12-1.542,4.241-3.084,6.361-4.626
			c4.626-3.277,8.289-5.783,11.759-7.903c3.277-1.928,6.747-3.085,10.795-3.471c1.543-0.192,2.699,0.193,3.471,0.965
			c1.156,0.963,1.542,2.698,0.963,4.24c-0.963,2.506-2.506,4.627-3.855,6.555c-1.734,2.506-4.047,4.626-7.324,6.939
			c-4.241,3.084-8.676,6.169-13.109,9.253l-5.396,3.855c-2.699,1.735-4.049,4.241-3.855,7.519c0.192,3.47,0.385,7.132,0.578,10.602
			l2.12,43.954c0.192,2.506-0.192,4.241-0.771,5.783c-0.965,2.506-2.699,4.048-5.591,5.205c-0.579,0.192-1.157,0.385-1.735,0.578
			c-1.928,0.578-2.506,0.192-3.084-1.542c-0.578-1.735-0.964-3.47-1.542-5.013l-8.481-30.072c-0.965-3.278-2.507-6.363-4.049-9.641
			l-2.699-5.59l-2.12,1.156c-0.192,0-0.386,0.193-0.386,0.193l-3.277,3.084c-7.903,5.012-15.807,10.219-23.711,15.23
			c-1.349,0.964-1.541,2.121-1.349,2.892c0.386,2.313,0.771,4.627,1.156,7.133l0.386,2.121c0.386,2.12,0.193,3.854-0.578,5.397
			c-0.771,1.542-2.121,2.698-4.048,3.084c-0.386,0.192-0.771-0.192-1.735-0.771c-0.579-0.385-0.964-0.771-1.35-1.349
			c-5.012-7.519-9.831-15.036-14.843-22.747l-4.241-6.363c-0.385-0.579-0.771-1.157-1.156-1.735
			C162.598,155.353,162.598,155.353,163.369,154.581z"/>
	</g>
	<g id="title" transform="translate(129.9453125, 401.92166900634766) scale(1)">
		<g>
			<text transform="matrix(1 0 0 1 -8.9492 -149.9998)" font-family="'Cambria'" font-size="60">Traveling</text>
		</g>
	</g>
	<text transform="matrix(1 0 0 1 156.0977 283.2998)" font-family="'AdobeMyungjoStd-Medium-KSCpc-EUC-H'" font-size="14">I travel with your money</text>
</g>
</svg>
